<svg xmlns="http://www.w3.org/2000/svg" viewBox="0 0 32 32" fill="none">
  <!-- Background -->
  <rect width="32" height="32" rx="6" fill="#1e40af"/>
  
  <!-- Gradient overlay -->
  <defs>
    <linearGradient id="grad" x1="0%" y1="0%" x2="100%" y2="100%">
      <stop offset="0%" style="stop-color:#1e40af;stop-opacity:1" />
      <stop offset="100%" style="stop-color:#1e3a8a;stop-opacity:1" />
    </linearGradient>
  </defs>
  <rect width="32" height="32" rx="6" fill="url(#grad)"/>
  
  <!-- Form document icon -->
  <g stroke="white" stroke-width="1.5" fill="none" stroke-linecap="round" stroke-linejoin="round">
    <!-- Document outline -->
    <path d="M20 4H8a2 2 0 0 0-2 2v20a2 2 0 0 0 2 2h16a2 2 0 0 0 2-2V10z" transform="scale(0.6) translate(5, 2)"/>
    <polyline points="20,4 20,10 26,10" transform="scale(0.6) translate(5, 2)"/>
    
    <!-- Form elements - checkboxes and lines -->
    <rect x="10" y="16" width="2" height="2" rx="0.5" fill="white"/>
    <line x1="14" y1="17" x2="22" y2="17"/>
    
    <rect x="10" y="20" width="2" height="2" rx="0.5" fill="white"/>
    <line x1="14" y1="21" x2="22" y2="21"/>
    
    <!-- Accent dot -->
    <circle cx="11" cy="17" r="0.5" fill="white"/>
  </g>
</svg> 